# xmcd
#
# Track frame offsets:
#	150
#	14934
#	40268
#	71284
#	92530
#	104285
#	116195
#	131087
#	149844
#	167678
#	191751
#	207788
#	225513
#	242148
#	256301
#	268557
#	287934
#	306034
#	318859
#
# Disc length: 4539 seconds
#
# Revision: 0
# Processed by: cddbd v1.5.1PL2 Copyright (c) Steve Scherf et al.
# Submitted via: EasyCDDAExtractor 9.1.3.1
#
DISCID=1c11b913
DTITLE=Various Artist - Top - Gospel para Louvar
DYEAR=1900
DGENRE=
TTITLE0=Mattos Nascimento - Jesus Vai curar
TTITLE1=Mara Lima - Portais Eternos
TTITLE2=Cassiane - A Cura
TTITLE3=Lauriete - Milagre
TTITLE4=J. Neto - Porque sou Feliz?
TTITLE5=Rose Nascimento - Cinco Letras Preciosas
TTITLE6=Irmãos Levitas - Sapateando na Brasa
TTITLE7=Mattos Nascimento - Clamor pela Africa
TTITLE8=Lauriete - Por um Fio
TTITLE9=Alda Célia  - Vem Espírito
TTITLE10=Cassiane - Celebrando a Cristo
TTITLE11=J. Neto - É Bonita
TTITLE12=Rose Nascimento - Livre
TTITLE13=Carlinhos e Lindomar - Única saída
TTITLE14=Mattos Nascimento - Dá Glória ai
TTITLE15=Presente e Futuro - Eu fiquei
TTITLE16=Aline Barros - Sem Limites
TTITLE17=Mara Lima - Crente que Ora
TTITLE18=Irmãos Levitas - Nasci de Novo
EXTD=
EXTT0=
EXTT1=
EXTT2=
EXTT3=
EXTT4=
EXTT5=
EXTT6=
EXTT7=
EXTT8=
EXTT9=
EXTT10=
EXTT11=
EXTT12=
EXTT13=
EXTT14=
EXTT15=
EXTT16=
EXTT17=
EXTT18=
PLAYORDER=
